<svg width="52" height="52" viewBox="0 0 19 20" fill="none" xmlns="http://www.w3.org/2000/svg">
<path d="M7 16.9611C2.7 18.3611 2.7 14.4611 1 13.9611M13 18.9611V15.4611C13 14.4611 13.1 14.0611 12.5 13.4611C15.3 13.1611 18 12.0611 18 7.46113C17.9988 6.2661 17.5325 5.11844 16.7 4.26113C17.0905 3.2231 17.0545 2.07276 16.6 1.06113C16.6 1.06113 15.5 0.761133 13.1 2.36113C11.0672 1.83172 8.93276 1.83172 6.9 2.36113C4.5 0.761133 3.4 1.06113 3.4 1.06113C2.94548 2.07276 2.90953 3.2231 3.3 4.26113C2.46745 5.11844 2.00122 6.2661 2 7.46113C2 12.0611 4.7 13.1611 7.5 13.4611C6.9 14.0611 6.9 14.6611 7 15.4611V18.9611" stroke="#F0F0F0" stroke-linecap="round" stroke-linejoin="round"/>
</svg>
